<svg xmlns="http://www.w3.org/2000/svg" data-name="Layer 1" viewBox="0 0 24 24"><path d="M15,8.5a.5.5,0,0,0-.5-.5h-5a.5.5,0,0,0,0,1h2a1.51,1.51,0,0,1,1.41,1H9.5a.5.5,0,0,0,0,1h3.41a1.51,1.51,0,0,1-1.41,1h-2a.5.5,0,0,0-.46.31.47.47,0,0,0,.11.54l3,3a.47.47,0,0,0,.35.15h1a.5.5,0,0,0,0-1h-.79l-2-2h.79A2.5,2.5,0,0,0,14,11h.55a.5.5,0,0,0,0-1H14a2.54,2.54,0,0,0-.46-1h1A.5.5,0,0,0,15,8.5Zm-8.5,3A.5.5,0,1,0,7,12,.5.5,0,0,0,6.5,11.5Zm11,0a.5.5,0,1,0,.5.5A.5.5,0,0,0,17.5,11.5ZM12,2A10,10,0,1,0,22,12,10,10,0,0,0,12,2Zm0,19a9,9,0,1,1,9-9A9,9,0,0,1,12,21Z"/></svg>